Coordinates
version=1
nRows=4
nColumns=107
inDegrees=yes

Units are S.I. units (second, meters, Newtons, ...)
If the header above contains a line with 'inDegrees', this indicates whether rotational values are in degrees (yes) or radians (no).

endheader
time	sternoclavicular_r2	sternoclavicular_r3	unrotscap_r3	unrotscap_r2	acromioclavicular_r2	acromioclavicular_r3	acromioclavicular_r1	unrothum_r1	unrothum_r3	unrothum_r2	elv_angle	shoulder_elv	shoulder1_r2	shoulder_rot	elbow_flexion	pro_sup	deviation	flexion	proximal_distal_r1	proximal_distal_r3	cmc_flexion	cmc_abduction	mp_flexion	ip_flexion	mcp2_flexion	mcp2_abduction	pm2_flexion	md2_flexion	mcp3_flexion	mcp3_abduction	pm3_flexion	md3_flexion	mcp4_flexion	mcp4_abduction	pm4_flexion	md4_flexion	mcp5_flexion	mcp5_abduction	pm5_flexion	md5_flexion	bicpt_tx	bicpt_ty	bicpt_tz	bicpt2_tx	bicpt2_ty	bicpt2_tz	ptpt_tx	ptpt_ty	ptpt_tz	FCUpt_tx	FCUpt_ty	FCUpt_tz	EDCpt_tx	EDCpt_ty	EDCpt_tz	APLpt_tx	APLpt_ty	APLpt_tz	FPLpt_tx	FPLpt_ty	FPLpt_tz	FPLpt2_tx	FPLpt2_ty	FPLpt2_tz	PEC1pt2_tx	PEC1pt2_ty	PEC1pt2_tz	PEC1pt3_tx	PEC1pt3_ty	PEC1pt3_tz	PEC2pt2_tx	PEC2pt2_ty	PEC2pt2_tz	PEC2pt3_tx	PEC2pt3_ty	PEC2pt3_tz	PEC3pt2_tx	PEC3pt2_ty	PEC3pt2_tz	PEC3pt3_tx	PEC3pt3_ty	PEC3pt3_tz	DELT2pt2a_tx	DELT2pt2a_ty	DELT2pt2a_tz	DELT2pt2_tx	DELT2pt2_ty	DELT2pt2_tz	LAT1pt2_tx	LAT1pt2_ty	LAT1pt2_tz	LAT1pt3_tx	LAT1pt3_ty	LAT1pt3_tz	LAT2pt2_tx	LAT2pt2_ty	LAT2pt2_tz	LAT2pt3_tx	LAT2pt3_ty	LAT2pt3_tz	LAT3pt2_tx	LAT3pt2_ty	LAT3pt2_tz	LAT3pt3_tx	LAT3pt3_ty	LAT3pt3_tz
      0.00000000	     -0.31506534	      0.13344681	     -0.13344681	      0.31506534	     -0.06379432	      0.51556327	      0.23174214	     -0.23174214	     -0.51556327	      0.06379432	    101.09472254	     74.59451934	     -1.76443576	    -35.95221707	     31.99996900	     86.25306746	      0.36826188	     -0.38107006	      0.38878027	     -0.19053503	     40.10633008	    -23.43944646	      4.76094016	      3.27348589	    100.47306198	     11.36152073	     64.42343220	     79.58282735	    100.59149916	     -2.53560701	     73.29519024	     59.53269071	     92.11904529	    -13.56587321	     95.54232812	     41.22556308	     97.06897766	    -14.17091903	     99.50565853	      5.36797605	      0.00095846	     -0.03126769	     -0.00489077	      0.01421369	     -0.01889295	     -0.00103267	      0.00117687	     -0.06902097	     -0.00699815	      0.01276708	     -0.18222916	      0.00009079	     -0.01035034	      0.00359191	     -0.00076536	      0.00026828	      0.00010731	      0.00053656	      0.00034340	      0.00103019	      0.00057948	     -0.00001034	     -0.00010904	     -0.00013085	      0.00244504	      0.00857838	      0.00596757	     -0.00799820	      0.01931171	     -0.01831711	      0.00244504	      0.00857838	      0.00596757	      0.00053874	      0.01790270	     -0.00940721	      0.00388796	      0.00477033	      0.01581915	      0.00000000	      0.00743945	      0.00000000	     -0.00700360	     -0.03236576	     -0.00613219	      0.02127969	     -0.00096493	     -0.01059967	     -0.00087027	      0.01458738	     -0.00596757	      0.00240360	      0.02105225	     -0.01740540	     -0.00584324	      0.01263964	     -0.00534595	     -0.01218378	      0.02668828	     -0.02987927	     -0.02287567	      0.01413153	     -0.00716937	     -0.01516757	      0.03083243	     -0.03733873
      0.03333333	     -0.31558560	      0.13366717	     -0.13366717	      0.31558560	     -0.06389966	      0.51641461	      0.23212481	     -0.23212481	     -0.51641461	      0.06389966	    101.32401911	     74.71769631	     -1.76843774	    -35.98042051	     31.29776069	     86.13811005	      0.36523664	     -0.37903761	      0.38649078	     -0.18951880	     40.16832108	    -23.43950623	      4.79719561	      3.28346790	    100.47994998	     11.40140748	     64.44375671	     79.58367283	    100.46545935	     -2.48594457	     73.26616539	     59.53243782	     91.98583154	    -13.56323020	     95.47262914	     41.21676175	     96.93604094	    -14.18276534	     99.46720096	      5.35409409	      0.00093523	     -0.03118720	     -0.00487780	      0.01422561	     -0.01870219	     -0.00105238	      0.00118537	     -0.06901548	     -0.00698889	      0.01275387	     -0.18223306	      0.00008761	     -0.01033655	      0.00358560	     -0.00076166	      0.00026749	      0.00010700	      0.00053498	      0.00034239	      0.00102717	      0.00057778	     -0.00001027	     -0.00010782	     -0.00012939	      0.00244908	      0.00859254	      0.00597742	     -0.00801140	      0.01934360	     -0.01834736	      0.00244908	      0.00859254	      0.00597742	      0.00053963	      0.01793226	     -0.00942274	      0.00389269	      0.00477820	      0.01583100	      0.00000000	      0.00746419	      0.00000000	     -0.00701517	     -0.03241921	     -0.00615274	      0.02128994	     -0.00096594	     -0.01061526	     -0.00087171	      0.01461147	     -0.00597742	      0.00240757	      0.02108701	     -0.01743414	     -0.00585289	      0.01266051	     -0.00535477	     -0.01220390	      0.02673235	     -0.02992861	     -0.02291345	      0.01415486	     -0.00718121	     -0.01519261	      0.03088334	     -0.03740039
      0.06666667	     -0.31455712	      0.13323155	     -0.13323155	      0.31455712	     -0.06369142	      0.51473164	      0.23136833	     -0.23136833	     -0.51473164	      0.06369142	    101.50896177	     74.47419423	     -1.77166560	    -37.23654402	     31.62461068	     86.66348847	      0.34057336	     -0.35897956	      0.36726721	     -0.17948978	     40.54754093	    -23.36577821	      5.99354939	      2.79935199	     99.19342988	     11.78389114	     68.15783435	     73.52644401	     98.23846646	     -1.85818896	     74.29368057	     57.06872674	     90.22120332	    -13.57389716	     92.49202872	     43.31657654	     94.00525915	    -14.18391552	     98.31185773	      5.33118265	      0.00094604	     -0.03122466	     -0.00488384	      0.01417082	     -0.01879098	     -0.00096211	      0.00114655	     -0.06904058	     -0.00703121	      0.01281429	     -0.18221520	      0.00010224	     -0.01039959	      0.00361449	     -0.00077864	      0.00025937	      0.00010375	      0.00051874	      0.00033199	      0.00099598	      0.00056024	     -0.00000976	     -0.00010030	     -0.00012036	      0.00244110	      0.00856454	      0.00595794	     -0.00798530	      0.01928056	     -0.01828757	      0.00244110	      0.00856454	      0.00595794	      0.00053787	      0.01787382	     -0.00939203	      0.00388333	      0.00476263	      0.01580754	      0.00000000	      0.00741531	      0.00000000	     -0.00699231	     -0.03231355	     -0.00611214	      0.02173576	     -0.00101088	     -0.01131780	     -0.00086887	      0.01456385	     -0.00595794	      0.00239973	      0.02101829	     -0.01737733	     -0.00583382	      0.01261925	     -0.00533732	     -0.01216413	      0.02664523	     -0.02983108	     -0.02283877	      0.01410873	     -0.00715780	     -0.01514310	      0.03078269	     -0.03727850
      0.10000000	     -0.31517067	      0.13349142	     -0.13349142	      0.31517067	     -0.06381565	      0.51573563	      0.23181962	     -0.23181962	     -0.51573563	      0.06381565	    101.19252975	     74.61945685	     -1.76614282	    -36.12798437	     31.80967358	     86.43095527	      0.35812615	     -0.27596097	      0.38105057	     -0.13798048	     40.60744800	    -23.39127197	      6.07957898	      3.70457615	     98.12732188	     11.98429034	     69.93964477	     70.97174867	     97.01250795	     -1.60563188	     74.85360469	     55.94551725	     89.29974479	    -13.56412376	     91.59958920	     44.10296083	     92.41140408	    -14.18572084	     98.19446796	      5.32279971	      0.00095217	     -0.03124587	     -0.00488726	      0.01419515	     -0.01884125	     -0.00100211	      0.00116373	     -0.06902947	     -0.00701248	      0.01278754	     -0.18222311	      0.00009574	     -0.01037169	      0.00360169	     -0.00077111	      0.00021857	      0.00008743	      0.00043714	      0.00027977	      0.00083931	      0.00047211	     -0.00000968	     -0.00009909	     -0.00011891	      0.00244586	      0.00858124	      0.00596956	     -0.00800087	      0.01931816	     -0.01832324	      0.00244586	      0.00858124	      0.00596956	      0.00053892	      0.01790868	     -0.00941035	      0.00388892	      0.00477192	      0.01582156	      0.00000000	      0.00744445	      0.00000000	     -0.00700594	     -0.03237658	     -0.00613635	      0.02134341	     -0.00097120	     -0.01069699	     -0.00087056	      0.01459226	     -0.00596956	      0.00240441	      0.02105929	     -0.01741122	     -0.00584520	      0.01264386	     -0.00534773	     -0.01218785	      0.02669721	     -0.02988926	     -0.02288332	      0.01413625	     -0.00717176	     -0.01517264	      0.03084273	     -0.03735122
